<?xml version="1.0" encoding="utf-8"?>
<!-- Generator: Adobe Illustrator 16.0.0, SVG Export Plug-In . SVG Version: 6.00 Build 0)  -->
<!DOCTYPE svg PUBLIC "-//W3C//DTD SVG 1.1//EN" "http://www.w3.org/Graphics/SVG/1.1/DTD/svg11.dtd">
<svg version="1.1" id="Layer_1" xmlns="http://www.w3.org/2000/svg" xmlns:xlink="http://www.w3.org/1999/xlink" x="0px" y="0px"
	 width="32px" height="32px" viewBox="0 0 32 32" enable-background="new 0 0 32 32" xml:space="preserve">
<circle fill="#6B5656" cx="-22.374" cy="-18.932" r="128.5"/>
<path fill="#FFFFFF" d="M-22.374-160.932c-78.424,0-142,63.576-142,142s63.576,142,142,142c78.425,0,142-63.576,142-142
	S56.051-160.932-22.374-160.932z M-22.626-102.433c21.379,0,38.713,20.501,38.713,45.793c0,25.287-16.996,55.893-38.378,55.893
	c-21.388,0-39.054-30.6-39.054-55.893C-61.345-81.932-44.007-102.433-22.626-102.433z M55.024,55.792
	c0,7.661-6.055,8.776-13.159,8.776h-64.156h-64.254c-7.093,0-13.129-1.115-13.129-8.776c0,0-5.382-55.97,37.316-78.086
	C-55.017-5.521-41.244,8.35-22.285,8.35c15.522,0,31.54-14.031,38.882-30.813C59.288-0.344,55.03,55.792,55.024,55.792z"/>
</svg>
