<?xml version="1.0" encoding="utf-8"?>
<!-- Generator: Adobe Illustrator 16.0.0, SVG Export Plug-In . SVG Version: 6.00 Build 0)  -->
<!DOCTYPE svg PUBLIC "-//W3C//DTD SVG 1.1//EN" "http://www.w3.org/Graphics/SVG/1.1/DTD/svg11.dtd">
<svg version="1.1" id="Layer_1" xmlns="http://www.w3.org/2000/svg" xmlns:xlink="http://www.w3.org/1999/xlink" x="0px" y="0px"
	 width="32px" height="32px" viewBox="0 0 32 32" enable-background="new 0 0 32 32" xml:space="preserve">
<circle fill="#6B5656" cx="16.022" cy="15.977" r="14.499"/>
<path fill="#FFFFFF" d="M16.022,0.159c-8.736,0-15.818,7.082-15.818,15.818c0,8.736,7.082,15.819,15.818,15.819
	S31.84,24.713,31.84,15.977C31.84,7.241,24.759,0.159,16.022,0.159z M15.994,6.675c2.382,0,4.312,2.284,4.312,5.102
	c0,2.816-1.894,6.225-4.274,6.225c-2.382,0-4.351-3.408-4.351-6.225C11.681,8.959,13.613,6.675,15.994,6.675z M24.644,24.302
	c0,0.853-0.674,0.977-1.466,0.977h-7.146H8.875c-0.791,0-1.463-0.124-1.463-0.977c0,0-0.6-6.235,4.157-8.699
	c0.818,1.867,2.352,3.414,4.464,3.414c1.729,0,3.512-1.563,4.332-3.433C25.119,18.049,24.645,24.302,24.644,24.302z"/>
</svg>